<svg width="31" height="45" viewBox="0 0 31 45" fill="none" xmlns="http://www.w3.org/2000/svg">
<path d="M3 14H12.8C15.1197 14 17 11.3137 17 8C17 4.6863 15.1197 2 12.8 2C10.4804 2 8.6 4.6863 8.6 8" stroke="#1E1E1E" stroke-width="3" stroke-linecap="round" stroke-linejoin="round"/>
<path d="M5 31H19.9286C22.1772 31 24 33.6862 24 37C24 40.3138 22.1772 43 19.9286 43C17.6799 43 15.8571 40.3138 15.8571 37" stroke="#1E1E1E" stroke-width="3" stroke-linecap="round" stroke-linejoin="round"/>
<path d="M2 23H24.95C27.1868 23 29 20.09 29 16.5C29 12.9102 27.1868 10 24.95 10C22.7132 10 20.9 12.9102 20.9 16.5" stroke="#1E1E1E" stroke-width="3" stroke-linecap="round" stroke-linejoin="round"/>
</svg>
