<svg width="275" height="252" viewBox="0 0 275 252" fill="none" xmlns="http://www.w3.org/2000/svg">
<g clip-path="url(#clip0_34_652)">
<path d="M145.889 191.27C141.799 191.861 138.808 194.329 139.207 196.783C139.606 199.236 143.245 200.746 147.336 200.154C148.973 199.939 150.532 199.357 151.883 198.457L169.177 195.747L168.023 189.302L150.767 191.604C149.193 191.127 147.52 191.012 145.889 191.27Z" fill="#FFB6B6"/>
<path d="M220.413 171.181L213.707 184.596L179.996 195.295L152.022 196.702L151.322 190.367L181.639 184.391L212.747 170.532L220.413 171.181Z" fill="#E6E6E6"/>
<path d="M143.928 143.115L143.009 143.135L144.766 218.425L145.686 218.406L143.928 143.115Z" fill="#3F3D56"/>
<path d="M143.948 176.452C143.865 176.185 141.959 169.835 146.086 163.594L146.866 164.052C142.964 169.954 144.811 176.146 144.83 176.208L143.948 176.452Z" fill="#3F3D56"/>
<path d="M146.408 164.075C146.408 164.075 145.154 155.991 156.712 153.772C159.12 153.31 161.383 152.994 163.458 152.784C165.908 152.535 166.863 155.696 164.65 156.717C161.446 158.196 158.431 160.059 156.86 162.265C152.527 168.349 146.408 164.075 146.408 164.075Z" fill="#F9A826"/>
<path d="M145.137 199.83L144.255 199.587C144.274 199.525 146.121 193.333 142.219 187.431L142.999 186.972C147.126 193.214 145.22 199.563 145.137 199.83Z" fill="#3F3D56"/>
<path d="M142.676 187.454C142.676 187.454 143.931 179.369 132.373 177.151C129.965 176.688 127.702 176.373 125.627 176.162C123.177 175.914 122.222 179.075 124.435 180.096C127.639 181.574 130.653 183.437 132.225 185.643C136.558 191.728 142.676 187.454 142.676 187.454Z" fill="#F9A826"/>
<path d="M158.763 132.662C161.089 132.084 163.265 131.076 163.193 130.079C163.107 128.895 159.877 128.101 157.091 127.981C159.192 126.431 161.123 124.288 160.533 123.319C159.99 122.428 157.464 122.773 155.134 123.557C156.513 121.699 157.483 119.604 156.744 118.888C155.825 117.995 152.56 119.536 150.333 121.239C150.766 118.585 150.547 115.236 149.284 114.933C148.228 114.679 146.731 116.628 145.705 118.75C145.251 116.523 144.333 114.408 143.273 114.408C141.764 114.408 140.54 118.699 140.54 121.495C140.54 121.653 140.544 121.802 140.552 121.944C140.4 121.779 140.227 121.605 140.029 121.424C137.901 119.476 133.783 117.314 132.731 118.335C131.993 119.052 132.962 121.147 134.341 123.005C132.011 122.221 129.486 121.875 128.943 122.766C128.213 123.964 131.331 126.952 133.866 128.401C133.714 128.384 133.554 128.369 133.383 128.359C130.424 128.168 125.8 129.027 125.697 130.447C125.625 131.444 127.8 132.452 130.127 133.03C127.811 133.851 125.647 135.126 125.843 136.137C126.081 137.364 129.717 137.793 132.576 137.542C130.441 139.474 128.125 142.934 129.091 143.949C129.799 144.692 132.082 143.923 134.143 142.752C133.154 144.89 132.616 147.243 133.522 147.814C134.72 148.569 138.003 145.941 139.734 143.68C139.558 146.446 140.26 150.246 141.653 150.396C142.706 150.51 143.873 148.507 144.591 146.342C145.356 148.561 146.608 150.657 147.688 150.518C149.093 150.337 149.705 146.442 149.443 143.674C151.228 145.842 154.234 148.161 155.367 147.446C156.273 146.874 155.736 144.522 154.747 142.384C156.808 143.554 159.09 144.324 159.799 143.581C160.765 142.566 158.449 139.105 156.313 137.174C159.172 137.425 162.808 136.995 163.047 135.769C163.243 134.758 161.079 133.483 158.763 132.662ZM146.236 140.486C145.638 140.563 145.091 140.673 144.676 140.954C144.234 140.54 143.589 140.414 142.871 140.337C142.068 140.251 141.338 140.242 140.781 140.679C140.578 140.146 140.077 139.766 139.493 139.398C138.992 139.082 138.505 138.822 137.997 138.772C137.957 138.187 137.563 137.689 137.08 137.183C136.772 136.86 136.465 136.571 136.123 136.378C136.616 135.812 136.559 135.097 136.407 134.312C136.298 133.753 136.156 133.243 135.84 132.864C136.258 132.429 136.362 131.816 136.411 131.136C136.465 130.395 136.443 129.723 135.989 129.222C137.162 129.363 137.728 128.673 138.255 127.81C138.555 127.316 138.797 126.841 138.815 126.359C139.432 126.282 139.932 125.877 140.435 125.389C140.865 124.972 141.231 124.559 141.368 124.083C141.86 124.473 142.532 124.533 143.273 124.533C143.995 124.533 144.652 124.476 145.14 124.113C145.52 124.436 146.05 124.604 146.635 124.744C147.193 124.878 147.72 124.968 148.199 124.878C148.374 125.254 148.685 125.596 149.04 125.941C149.543 126.43 150.043 126.834 150.66 126.912C150.679 127.393 150.92 127.869 151.221 128.362C151.575 128.943 151.947 129.445 152.509 129.669C152.443 130.006 152.45 130.378 152.478 130.768C152.528 131.447 152.632 132.061 153.049 132.496C152.733 132.875 152.592 133.385 152.483 133.944C152.331 134.729 152.274 135.444 152.767 136.01C152.425 136.203 152.117 136.491 151.81 136.814C151.327 137.321 150.933 137.819 150.893 138.404C150.384 138.454 149.898 138.714 149.396 139.03C148.711 139.462 148.14 139.91 148.031 140.606C147.517 140.371 146.901 140.401 146.236 140.486Z" fill="#F9A826"/>
<path d="M144.64 141.836C150.032 141.836 154.403 137.715 154.403 132.632C154.403 127.549 150.032 123.428 144.64 123.428C139.248 123.428 134.877 127.549 134.877 132.632C134.877 137.715 139.248 141.836 144.64 141.836Z" fill="#3F3D56"/>
<path d="M26.895 244.242C26.895 244.529 27.1387 244.758 27.4421 244.758H267.524C267.827 244.758 268.071 244.529 268.071 244.242C268.071 243.956 267.827 243.727 267.524 243.727H27.4421C27.1387 243.727 26.895 243.956 26.895 244.242Z" fill="#3F3D56"/>
<path d="M158.237 222.119L152.216 236.475L144.425 231.467L149.029 216.443L158.237 222.119Z" fill="#FFB6B6"/>
<path d="M133.093 216.777L117.156 231.134L123.531 237.477L139.821 225.458L133.093 216.777Z" fill="#FFB6B6"/>
<path d="M223.4 170.034L223.223 168.865L219.15 161.353L205.692 164.692L208.171 175.042L223.4 170.034Z" fill="#FFB6B6"/>
<path d="M217.733 220.115L218.147 225.13C218.147 225.13 219.858 246.158 206.046 247.827C192.235 249.497 186.214 251.166 178.069 238.145L165.32 216.777L157.873 225.13L147.967 217.778C147.967 217.778 155.05 191.736 160.716 190.734C161.424 190.609 162.132 190.547 162.83 190.533C167.521 190.441 171.943 192.604 174.749 196.149L190.818 216.443L196.662 213.939L217.733 220.115Z" fill="#2F2E41"/>
<path d="M141.238 235.808L144.425 230.132L153.633 236.142C153.633 236.142 155.758 243.487 152.571 244.489C149.383 245.49 140.53 244.155 140.53 244.155C140.53 244.155 124.239 247.493 123.885 244.489C123.531 241.484 131.322 240.816 131.322 240.816L141.238 235.808Z" fill="#2F2E41"/>
<path d="M175.944 231.801L151.331 217.18L138.759 227.795L130.259 218.446C130.259 218.446 145.842 196.744 150.446 195.743C155.05 194.741 162.487 194.073 162.487 194.073L185.152 213.772L175.944 231.801Z" fill="#2F2E41"/>
<path d="M116.802 229.798L124.947 238.145L123.873 239.011C123.873 239.011 121.76 247.688 116.802 244.753C111.844 241.817 111.49 241.15 111.49 241.15C111.49 241.15 97.324 244.155 95.9074 238.813C94.4908 233.47 98.3864 234.472 98.3864 234.472L101.924 236.475L116.802 229.798Z" fill="#2F2E41"/>
<path d="M209.942 168.365C216.201 168.365 221.275 163.581 221.275 157.681C221.275 151.78 216.201 146.997 209.942 146.997C203.683 146.997 198.609 151.78 198.609 157.681C198.609 163.581 203.683 168.365 209.942 168.365Z" fill="#FFB6B6"/>
<path d="M207.286 172.872L223.577 168.198C223.577 168.198 229.951 182.221 228.889 188.564C227.826 194.908 218.147 225.13 218.147 225.13L196.662 213.939C196.662 213.939 196.308 207.261 195.245 204.256C194.183 201.252 190.818 192.07 198.255 184.391C205.692 176.712 207.286 172.872 207.286 172.872Z" fill="#E6E6E6"/>
<path d="M48.1937 67.5952L47.2748 67.6143L51.4118 244.86L52.3307 244.841L48.1937 67.5952Z" fill="#3F3D56"/>
<path d="M49.4601 145.896C49.4129 145.745 44.8553 130.573 54.4242 116.102L55.2044 116.56C45.8509 130.706 50.2961 145.504 50.3422 145.652L49.4601 145.896Z" fill="#3F3D56"/>
<path d="M54.6553 116.925C54.6553 116.925 51.7017 97.8932 78.9107 92.6699C84.5792 91.5817 89.9083 90.838 94.7933 90.3424C100.559 89.7575 102.809 97.1991 97.5997 99.6027C90.0558 103.084 82.9594 107.469 79.2606 112.663C69.0595 126.987 54.6553 116.925 54.6553 116.925Z" fill="#F9A826"/>
<path d="M51.0649 200.934L50.1828 200.69C50.2286 200.542 54.6653 185.73 45.3206 171.598L46.1007 171.139C55.6697 185.61 51.112 200.782 51.0649 200.934Z" fill="#3F3D56"/>
<path d="M45.8696 171.963C45.8696 171.963 48.8232 152.931 21.6141 147.707C15.9456 146.619 10.6166 145.875 5.73158 145.38C-0.0346314 144.795 -2.28387 152.236 2.92517 154.64C10.469 158.121 17.5654 162.507 21.2642 167.7C31.4654 182.024 45.8696 171.963 45.8696 171.963Z" fill="#F9A826"/>
<path d="M83.7396 42.9728C89.2165 41.6114 94.338 39.2392 94.1681 36.8925C93.9663 34.1048 86.3627 32.2369 79.803 31.9526C84.7508 28.3033 89.2969 23.2587 87.9066 20.9772C86.6285 18.8797 80.6827 19.6922 75.197 21.5396C78.4434 17.1639 80.7258 12.2333 78.9876 10.5459C76.8223 8.44398 69.1377 12.0719 63.8933 16.0821C64.9142 9.83461 64.3981 1.94868 61.4259 1.23521C58.9394 0.638332 55.4153 5.22565 52.9992 10.2228C51.9313 4.97868 49.7696 0 47.2746 0C43.7204 0 40.8392 10.1026 40.8392 16.6845C40.8392 17.0565 40.8497 17.4068 40.8677 17.7414C40.511 17.3515 40.1021 16.9442 39.6359 16.5173C34.6276 11.9318 24.9329 6.84206 22.4567 9.24579C20.7186 10.9332 23.0009 15.8638 26.2473 20.2395C20.7616 18.3921 14.8158 17.5796 13.5377 19.6771C11.8203 22.4955 19.1612 29.531 25.1282 32.9428C24.7695 32.9021 24.3926 32.8678 23.9916 32.842C17.0263 32.394 6.13913 34.4162 5.89718 37.7592C5.72732 40.1059 10.8488 42.4781 16.3256 43.8395C10.873 45.7719 5.77861 48.7744 6.24101 51.1537C6.80219 54.0415 15.3619 55.0524 22.0921 54.4607C17.0641 59.0087 11.6122 67.156 13.8874 69.5438C15.5548 71.2936 20.9279 69.4825 25.7795 66.7269C23.4511 71.7609 22.1865 77.298 24.3192 78.643C27.1376 80.4204 34.8673 74.2342 38.9427 68.9112C38.5275 75.4233 40.1802 84.3697 43.4597 84.7228C45.9385 84.9896 48.6855 80.2743 50.3775 75.1783C52.1767 80.4016 55.1259 85.3363 57.6682 85.0092C60.974 84.5839 62.4152 75.4137 61.7986 68.8968C66.0023 74.0008 73.0772 79.4594 75.7461 77.7763C77.8788 76.4313 76.6143 70.8941 74.2858 65.8601C79.1374 68.6157 84.5105 70.4268 86.1779 68.6771C88.4531 66.2893 83.0012 58.142 77.9732 53.594C84.7034 54.1857 93.2631 53.1748 93.8243 50.287C94.2867 47.9076 89.1923 44.9052 83.7396 42.9728ZM54.25 61.3931C52.8422 61.5742 51.5549 61.8328 50.576 62.4932C49.536 61.5199 48.017 61.2235 46.3281 61.0417C44.4371 60.8381 42.7186 60.8184 41.4081 61.8472C40.9286 60.5907 39.7495 59.6981 38.376 58.8319C37.1951 58.0871 36.0497 57.4757 34.8525 57.3578C34.7589 55.9791 33.8308 54.8074 32.6948 53.6152C31.9704 52.855 31.2457 52.1754 30.4416 51.7209C31.6018 50.3891 31.468 48.7058 31.1091 46.8585C30.853 45.5409 30.5203 44.3404 29.7759 43.4485C30.7598 42.4247 31.0047 40.9806 31.1205 39.3818C31.2468 37.636 31.1943 36.0532 30.1255 34.8745C32.8877 35.2058 34.2207 33.5834 35.4597 31.5501C36.1674 30.3887 36.7365 29.2698 36.7797 28.1356C38.2324 27.9538 39.4092 27.001 40.5934 25.8513C41.6051 24.8692 42.4656 23.8968 42.7888 22.7776C43.948 23.696 45.5297 23.835 47.2746 23.835C48.9745 23.835 50.5193 23.703 51.6697 22.8472C52.5629 23.608 53.8107 24.0027 55.1876 24.3332C56.502 24.6488 57.7427 24.8598 58.8708 24.6474C59.2826 25.5343 60.0147 26.3397 60.8509 27.1514C62.0351 28.3011 63.2119 29.2539 64.6646 29.4357C64.7078 30.5698 65.2769 31.6887 65.9846 32.8502C66.8178 34.2175 67.6928 35.3996 69.0163 35.9271C68.8617 36.7213 68.8783 37.5954 68.9448 38.5151C69.0605 40.1139 69.3054 41.558 70.2894 42.5818C69.545 43.4736 69.2123 44.6742 68.9562 45.9918C68.5972 47.8391 68.4635 49.5224 69.6237 50.8541C68.8195 51.3087 68.0949 51.9883 67.3705 52.7485C66.2345 53.9407 65.3064 55.1124 65.2128 56.4911C64.0155 56.609 62.8702 57.2203 61.6892 57.9651C60.0762 58.9824 58.7326 60.0368 58.4746 61.6738C57.2641 61.1202 55.8152 61.1917 54.25 61.3931Z" fill="#F9A826"/>
<path d="M50.4923 64.5712C63.1857 64.5712 73.4758 54.87 73.4758 42.903C73.4758 30.936 63.1857 21.2349 50.4923 21.2349C37.7988 21.2349 27.5087 30.936 27.5087 42.903C27.5087 54.87 37.7988 64.5712 50.4923 64.5712Z" fill="#3F3D56"/>
<path d="M262.846 202.057L261.927 202.076L262.915 244.427L263.834 244.408L262.846 202.057Z" fill="#3F3D56"/>
<path d="M262.463 220.866C262.415 220.713 261.319 217.062 263.688 213.479L264.468 213.938C262.324 217.181 263.335 220.589 263.345 220.623L262.463 220.866Z" fill="#3F3D56"/>
<path d="M264.04 213.851C264.04 213.851 263.334 209.303 269.835 208.055C271.19 207.795 272.463 207.618 273.63 207.499C275.008 207.359 275.546 209.138 274.301 209.712C272.498 210.544 270.803 211.592 269.919 212.832C267.482 216.255 264.04 213.851 264.04 213.851Z" fill="#F9A826"/>
<path d="M263.518 234.016L262.635 233.773C262.646 233.739 263.657 230.331 261.513 227.089L262.293 226.63C264.661 230.212 263.566 233.863 263.518 234.016Z" fill="#3F3D56"/>
<path d="M261.941 227.002C261.941 227.002 262.646 222.454 256.145 221.206C254.791 220.946 253.517 220.768 252.35 220.65C250.972 220.51 250.435 222.288 251.68 222.863C253.482 223.694 255.178 224.742 256.062 225.983C258.499 229.406 261.941 227.002 261.941 227.002Z" fill="#F9A826"/>
<path d="M270.989 196.181C272.298 195.856 273.522 195.289 273.481 194.728C273.433 194.062 271.616 193.616 270.049 193.548C271.231 192.676 272.317 191.47 271.985 190.925C271.68 190.424 270.259 190.618 268.948 191.06C269.724 190.014 270.269 188.836 269.854 188.433C269.336 187.931 267.5 188.798 266.247 189.756C266.491 188.263 266.368 186.379 265.658 186.208C265.064 186.066 264.222 187.162 263.644 188.356C263.389 187.103 262.873 185.913 262.276 185.913C261.427 185.913 260.739 188.327 260.739 189.9C260.739 189.989 260.741 190.072 260.746 190.152C260.66 190.059 260.563 189.962 260.451 189.86C259.255 188.764 256.938 187.548 256.346 188.122C255.931 188.525 256.477 189.704 257.252 190.749C255.941 190.308 254.521 190.114 254.215 190.615C253.805 191.288 255.559 192.969 256.985 193.784C256.899 193.775 256.809 193.766 256.713 193.76C255.049 193.653 252.448 194.136 252.39 194.935C252.349 195.496 253.573 196.063 254.882 196.388C253.579 196.85 252.361 197.567 252.472 198.136C252.606 198.826 254.651 199.067 256.259 198.926C255.058 200.013 253.755 201.959 254.299 202.53C254.697 202.948 255.981 202.515 257.14 201.857C256.584 203.059 256.282 204.383 256.791 204.704C257.465 205.129 259.312 203.65 260.286 202.379C260.186 203.935 260.581 206.072 261.365 206.157C261.957 206.22 262.614 205.094 263.018 203.876C263.448 205.124 264.152 206.303 264.76 206.225C265.55 206.123 265.894 203.932 265.747 202.375C266.751 203.595 268.442 204.899 269.079 204.497C269.589 204.175 269.287 202.852 268.73 201.65C269.89 202.308 271.173 202.741 271.572 202.323C272.116 201.752 270.813 199.805 269.611 198.719C271.22 198.86 273.265 198.619 273.399 197.929C273.509 197.36 272.292 196.643 270.989 196.181ZM263.943 200.582C263.607 200.625 263.299 200.687 263.065 200.845C262.817 200.613 262.454 200.542 262.05 200.498C261.598 200.45 261.188 200.445 260.875 200.691C260.76 200.391 260.478 200.177 260.15 199.97C259.868 199.792 259.594 199.646 259.308 199.618C259.286 199.289 259.064 199.009 258.793 198.724C258.62 198.542 258.447 198.38 258.254 198.271C258.532 197.953 258.5 197.551 258.414 197.109C258.353 196.795 258.273 196.508 258.095 196.295C258.33 196.05 258.389 195.705 258.417 195.323C258.447 194.906 258.434 194.528 258.179 194.246C258.839 194.325 259.157 193.937 259.453 193.452C259.622 193.174 259.758 192.907 259.769 192.636C260.116 192.592 260.397 192.365 260.68 192.09C260.922 191.855 261.127 191.623 261.205 191.356C261.482 191.575 261.859 191.608 262.276 191.608C262.683 191.608 263.052 191.577 263.327 191.372C263.54 191.554 263.838 191.648 264.167 191.727C264.481 191.803 264.778 191.853 265.047 191.802C265.146 192.014 265.32 192.207 265.52 192.401C265.803 192.675 266.084 192.903 266.432 192.946C266.442 193.217 266.578 193.485 266.747 193.762C266.946 194.089 267.155 194.371 267.471 194.497C267.434 194.687 267.438 194.896 267.454 195.116C267.482 195.498 267.54 195.843 267.776 196.087C267.598 196.301 267.518 196.587 267.457 196.902C267.371 197.344 267.339 197.746 267.616 198.064C267.424 198.173 267.251 198.335 267.078 198.517C266.807 198.802 266.585 199.082 266.563 199.411C266.276 199.439 266.003 199.585 265.721 199.763C265.335 200.006 265.014 200.258 264.953 200.649C264.663 200.517 264.317 200.534 263.943 200.582Z" fill="#F9A826"/>
<path d="M263.045 201.342C266.078 201.342 268.537 199.024 268.537 196.164C268.537 193.305 266.078 190.987 263.045 190.987C260.012 190.987 257.554 193.305 257.554 196.164C257.554 199.024 260.012 201.342 263.045 201.342Z" fill="#3F3D56"/>
<path d="M171.431 242.98C168.78 245.974 168.27 249.691 170.292 251.282C172.313 252.872 176.101 251.734 178.752 248.738C179.829 247.555 180.59 246.146 180.97 244.629L192.034 231.807L186.644 227.696L175.324 240.187C173.808 240.811 172.474 241.769 171.431 242.98Z" fill="#FFB6B6"/>
<path d="M219.782 179.608L223.632 193.987L204.786 222.428L185.548 240.657L179.312 235.779L198.715 213.019L213.422 183.694L219.782 179.608Z" fill="#E6E6E6"/>
<path d="M199.495 155.844C202.401 155.838 202.566 155.856 203.036 155.844C206.641 155.755 207.584 154.418 209.411 154.509C212.672 154.672 208.368 170.086 206.578 177.212C204.822 184.201 210.755 190.464 211.182 190.901C217.204 197.076 227.782 198.205 229.597 195.576C231.066 193.447 225.859 190.211 227.118 185.559C228.348 181.012 234.03 181.496 235.618 177.212C237.281 172.726 231.692 170.463 228.181 159.517C226.164 153.23 226.521 152.059 224.639 148.165C219.609 137.757 194.956 142.189 197.724 151.838C198.259 153.704 196.835 155.85 199.495 155.844Z" fill="#2F2E41"/>
</g>
<defs>
<clipPath id="clip0_34_652">
<rect width="275" height="252" fill="white"/>
</clipPath>
</defs>
</svg>
