<svg width="54" height="48" viewBox="0 0 54 48" fill="none" xmlns="http://www.w3.org/2000/svg">
<path d="M42.5213 6.96079C41.1039 7.67554 39.3923 8.26757 37.8713 8.04191C35.4732 7.68725 29.292 7.71069 25.1891 9.0365C21.0863 10.3622 13.6268 14.5064 11.3892 15.1708C9.1505 15.8332 8.96456 18.4865 13.9995 18.9829C19.0355 19.481 23.5109 16.6617 24.6297 16.1653C25.7486 15.6672 36.5656 17.1598 36.5656 17.1598L39.9689 17.9053L47.8151 27.3328C49.1918 26.2696 51.9149 24.0134 52.6044 22.2988C52.8552 21.6742 53.2286 21.1003 53.64 20.5903L53.7262 20.6958C55.5731 17.0263 47.6537 5.35072 42.5213 6.96079Z" fill="#1E1E1E"/>
<path d="M37.8714 19.2735L36.2225 19.1256C34.0589 18.8277 27.9407 18.0533 25.643 18.0533C25.5426 18.0533 25.4624 18.0543 25.4025 18.0569C25.3101 18.1039 25.2034 18.158 25.0989 18.2122C23.4683 19.056 19.6508 21.0316 15.2037 21.0316C14.7154 21.0316 14.2279 21.0072 13.7529 20.9603C13.0321 20.889 12.3985 20.7788 11.838 20.6398C12.369 20.8465 12.8574 21.1425 13.2767 21.5225C13.9336 22.1199 14.3417 22.8528 14.5032 23.619C14.8861 23.5278 15.2829 23.4773 15.6891 23.4773C16.9338 23.4773 18.0974 23.9122 18.9675 24.7028C19.8235 25.4808 20.2885 26.5096 20.2753 27.598C20.2753 27.6088 20.2732 27.6198 20.2732 27.6306C21.5118 27.6341 22.6713 28.0691 23.5384 28.8562C24.3953 29.6341 24.8603 30.6629 24.8472 31.7513C24.8421 32.1267 24.7771 32.4932 24.6634 32.8452C25.5426 33.0085 26.3478 33.3975 26.9914 33.9823C28.7602 35.5897 28.7286 38.1753 26.9214 39.7475L26.0158 40.5344C26.0198 40.5344 26.0249 40.5344 26.0289 40.5344C27.5488 40.4369 28.8302 39.6031 29.1886 38.3468C29.8079 38.7808 30.5876 39.0416 31.4375 39.0416C33.4457 39.0416 35.0743 37.595 35.0743 35.8089C35.0743 35.6213 35.0519 35.4389 35.0174 35.2601C35.6572 35.7557 36.4906 36.0579 37.4054 36.0579C39.4138 36.0579 41.0423 34.6103 41.0423 32.8253C41.4727 32.9849 41.9448 33.0743 42.4403 33.0743C44.4485 33.0743 46.0771 31.6267 46.0771 29.8416C46.0771 28.486 45.3309 27.6034 43.5592 25.7803L37.8714 19.2735Z" fill="#1E1E1E"/>
<path d="M11.6774 22.9142C10.7697 22.0903 9.28338 22.0757 8.35641 22.8817L5.00082 25.8013C4.07385 26.6072 4.05761 27.9285 4.96433 28.7524C5.87104 29.5764 7.35741 29.5908 8.28448 28.7839L11.641 25.8653C12.5679 25.0594 12.5841 23.7382 11.6774 22.9142Z" fill="#1E1E1E"/>
<path d="M17.3673 26.0946C16.4606 25.2697 14.9742 25.2553 14.0472 26.0621L9.57169 29.9536C8.64473 30.7604 8.62954 32.0817 9.53625 32.9047C10.4429 33.7296 11.9292 33.7439 12.8573 32.9372L17.3317 29.0457C18.2587 28.2398 18.275 26.9186 17.3673 26.0946Z" fill="#1E1E1E"/>
<path d="M21.9392 30.2478C21.0326 29.4238 19.5462 29.4085 18.6192 30.2154L14.1438 34.1078C13.2168 34.9136 13.2006 36.2349 14.1082 37.0598C15.0149 37.8828 16.5013 37.8973 17.4284 37.0904L21.9038 33.1989C22.8307 32.3921 22.8458 31.0708 21.9392 30.2478Z" fill="#1E1E1E"/>
<path d="M25.3922 35.3739C24.4845 34.5499 22.9981 34.5346 22.0722 35.3414L19.4618 37.6121C18.5348 38.418 18.5185 39.7392 19.4253 40.5632C20.3319 41.3871 21.8193 41.4007 22.7463 40.5957L25.3566 38.3251C26.2826 37.5191 26.2989 36.1979 25.3922 35.3739Z" fill="#1E1E1E"/>
<path d="M9.99819 20.2969C10.3515 20.2969 10.6967 20.3367 11.0318 20.4042C8.21229 19.4431 7.74528 17.6851 7.67113 17.0651C7.47211 15.3954 8.68237 13.8747 10.6805 13.2827C11.4847 13.0445 13.5934 12.0228 15.6312 11.0355C17.8182 9.97503 20.2183 8.81178 22.3068 7.95612C19.6608 7.76581 17.1816 7.84606 15.8566 8.0419C14.432 8.25303 12.84 7.74678 11.4786 7.09522C6.34613 5.48431 -1.5732 17.1598 0.273659 20.8303C0.609682 21.2788 0.911323 21.7698 1.12353 22.2987C1.43719 23.0785 2.1722 23.9701 3.00994 24.8112C3.14093 24.6614 3.28005 24.5152 3.4354 24.3789L6.79099 21.4594C7.65383 20.7102 8.79195 20.2969 9.99819 20.2969Z" fill="#1E1E1E"/>
</svg>
