<svg width="59" height="36" viewBox="0 0 59 36" fill="none" xmlns="http://www.w3.org/2000/svg">
<path d="M8.09428 3.04511C7.68003 3.16956 7.29931 3.5577 7.12691 4.03474C6.99761 4.38733 7 4.37548 7.00479 7.32659L7.01197 10.0584L7.12212 9.85104C7.49087 9.16659 8.3002 8.09696 8.85572 7.56659C10.1009 6.37252 11.4035 5.694 12.8904 5.46881C13.489 5.37696 14.4349 5.3977 15.0335 5.51326C15.7327 5.64956 16.4295 5.88363 17.0879 6.20659L17.392 6.35474V9.24956V12.1444L17.064 11.7414C16.5995 11.1725 16.1373 10.7873 15.6153 10.5296C13.6231 9.54881 11.5687 10.3103 10.5031 12.4199C10.2349 12.9533 10.041 13.6318 9.96916 14.2866C9.9093 14.814 9.9524 15.7888 10.0554 16.3755C10.2278 17.3355 10.5007 18.0436 10.9413 18.6836C11.6333 19.6881 12.809 20.2718 14.1356 20.2718C15.0742 20.2718 16.2379 19.6288 17.1502 18.6036C17.2604 18.4792 17.3585 18.3814 17.3657 18.3873C17.3729 18.3933 17.3777 19.6851 17.3729 21.2584L17.3681 24.1177L17.0017 24.2659C15.8979 24.7133 14.8922 24.9236 13.8482 24.9236C12.4762 24.9236 11.2239 24.5533 10.0482 23.7977C8.92277 23.0747 8.01526 22.1207 7.22987 20.8259L7 20.4436V23.0481C7 25.937 6.99761 25.8807 7.15804 26.2866C7.32326 26.6955 7.67525 27.051 8.06555 27.1933C8.19964 27.2436 8.40317 27.2466 10.9629 27.2555C12.4786 27.2614 13.7237 27.2673 13.7333 27.2733C13.7429 27.2762 13.7524 28.5918 13.7524 30.1977C13.7524 31.8036 13.762 33.134 13.774 33.1547C13.786 33.1814 13.9248 32.9444 14.1978 32.4288C14.4181 32.0081 14.8204 31.2525 15.0886 30.7459C15.3591 30.2392 15.7183 29.5607 15.8931 29.2347C16.7479 27.6229 16.8868 27.3651 16.9179 27.3177C16.9467 27.2703 17.2484 27.2644 21.8266 27.2466L26.7066 27.2259L26.7114 30.2155L26.7185 33.2021L27.0394 32.5977C27.2166 32.2629 27.5039 31.7236 27.6763 31.3977C27.8511 31.0718 28.1481 30.5118 28.3372 30.1533C28.8544 29.1844 29.1897 28.5503 29.4698 28.0199C29.6063 27.7592 29.7595 27.4747 29.8074 27.3888L29.8936 27.2347L35.8679 27.2288C39.1531 27.2288 41.8517 27.2259 41.8636 27.2229C41.8804 27.2199 41.8876 28.1977 41.89 30.2125C41.89 33.054 41.8924 33.1992 41.9307 33.1133C41.9522 33.0659 42.0073 32.9621 42.0504 32.8881C42.0911 32.811 42.127 32.7429 42.127 32.737C42.127 32.7281 42.1701 32.6451 42.2252 32.5503C42.2779 32.4525 42.3593 32.3014 42.4072 32.2125C42.4527 32.1236 42.5269 31.9814 42.57 31.9014C42.6131 31.8184 42.7903 31.4866 42.9627 31.1607C43.1351 30.8347 43.3075 30.5088 43.3482 30.4347C43.5134 30.1325 43.5589 30.0347 43.5494 30.014C43.5422 30.0021 43.547 29.9903 43.5613 29.9903C43.5901 29.9903 44.0426 29.1577 44.0426 29.1073C44.0426 29.0866 44.0522 29.0718 44.0642 29.0718C44.0905 29.0718 44.1264 28.9533 44.1168 28.9088C44.1145 28.894 44.1192 28.8881 44.1288 28.8999C44.1528 28.9325 44.2605 28.7459 44.2414 28.7044C44.2342 28.6866 44.2342 28.6807 44.2461 28.6925C44.2629 28.7133 44.3778 28.5414 44.3778 28.494C44.3778 28.4851 44.4138 28.414 44.4593 28.334C44.5048 28.254 44.5359 28.1799 44.5287 28.171C44.5191 28.1621 44.5239 28.1533 44.5383 28.1533C44.5526 28.1533 44.6317 28.0199 44.7155 27.854C44.7993 27.6881 44.8807 27.537 44.8974 27.5162C44.9142 27.4955 44.919 27.4718 44.9118 27.4599C44.9022 27.451 44.907 27.4421 44.9214 27.4421C44.9358 27.4421 44.9693 27.3947 44.998 27.3384L45.0459 27.2347L48.8723 27.2288L52.6987 27.2199L52.907 27.134C53.0291 27.0836 53.1105 27.0362 53.1009 27.0184C53.0938 27.0007 53.0985 26.9977 53.1129 27.0096C53.1273 27.0214 53.1871 26.9947 53.2422 26.9503C53.3715 26.8496 53.6205 26.5562 53.6205 26.5059C53.6205 26.4851 53.6301 26.4644 53.6397 26.4584C53.678 26.4407 53.7666 26.2303 53.8289 26.0021L53.8959 25.7681V15.1459C53.8959 6.67474 53.8887 4.49104 53.8648 4.36363C53.7762 3.88955 53.4673 3.41845 53.1105 3.20807C53.0028 3.14289 52.8495 3.0777 52.7705 3.05993C52.6651 3.03326 50.3784 3.02733 44.0354 3.03326C39.3111 3.03919 35.4464 3.03326 35.4464 3.01844C35.4464 3.00659 29.3237 2.9977 21.841 3.00067C10.2685 3.00363 8.21161 3.00956 8.09428 3.04511ZM34.4096 3.75326C34.4096 3.77696 34.4 3.78881 34.3881 3.77993C34.3761 3.77104 34.3737 3.7503 34.3809 3.73548C34.4024 3.69696 34.4096 3.70289 34.4096 3.75326ZM40.3743 5.81845C40.391 5.83919 40.403 5.86881 40.403 5.88955C40.403 5.90733 40.4222 5.97548 40.4437 6.0377C40.4653 6.10289 40.4844 6.15919 40.4868 6.16807C40.4892 6.1977 40.6951 6.83474 40.7406 6.95918C40.7646 7.0303 40.7861 7.09252 40.7861 7.09844C40.7861 7.10437 40.8053 7.16067 40.8268 7.22289C40.8484 7.28807 40.8675 7.3503 40.8723 7.36807C40.8771 7.39474 41.0639 7.98141 41.174 8.31622C41.2004 8.39622 41.2411 8.49104 41.2626 8.52067C41.2842 8.55326 41.2866 8.56808 41.2698 8.55622C41.2363 8.53252 41.3105 8.77844 41.4518 9.16067C41.4949 9.27919 41.4973 9.28807 41.5021 9.35919C41.5045 9.40363 41.5093 9.40363 41.526 9.37104C41.5428 9.34141 41.5476 9.34733 41.5476 9.40067C41.5452 9.51919 41.799 10.2984 41.8277 10.2629C41.8397 10.251 41.8397 10.257 41.8301 10.2777C41.8158 10.3103 41.8684 10.5029 41.9474 10.7221C41.9666 10.7725 41.9834 10.8318 41.9834 10.8555C41.9834 10.8792 41.9929 10.9088 42.0025 10.9266C42.0121 10.9414 42.0744 11.1192 42.1414 11.3236C42.2061 11.5281 42.2659 11.697 42.2779 11.7029C42.2875 11.7088 42.2946 11.7355 42.2946 11.7651C42.2946 11.8362 42.5748 12.6955 42.5868 12.6659C42.594 12.654 42.5964 12.657 42.5916 12.6747C42.5868 12.7044 42.7041 13.0955 42.7855 13.3236C42.8023 13.371 42.8454 13.5044 42.8789 13.6199C42.9148 13.7325 42.9507 13.854 42.9651 13.8866C42.9771 13.9192 43.0465 14.1384 43.1207 14.3755C43.195 14.6125 43.2644 14.8318 43.2764 14.8644C43.3482 15.0629 43.3937 15.2051 43.4201 15.3029C43.4416 15.3859 43.4584 15.4125 43.4847 15.3977C43.5158 15.3859 43.5158 15.3888 43.4943 15.4214C43.4751 15.454 43.4799 15.5014 43.5206 15.6229C43.5494 15.7118 43.5805 15.7947 43.5925 15.8125C43.602 15.8273 43.6116 15.857 43.6116 15.8807C43.6116 15.9044 43.6284 15.9636 43.6475 16.014C43.6667 16.0673 43.717 16.2244 43.7625 16.3666C43.8295 16.5829 43.8487 16.6214 43.875 16.5888C43.9037 16.5592 43.9037 16.5621 43.8798 16.6007C43.8463 16.654 43.8918 16.8733 43.9301 16.8436C43.9444 16.8347 43.9468 16.8407 43.9397 16.8555C43.9301 16.8733 43.9373 16.9325 43.9564 16.9829L43.9875 17.0807L44.0187 16.9651C44.033 16.9029 44.0666 16.7962 44.0905 16.731C44.1121 16.6659 44.1983 16.3992 44.2821 16.1384C44.3635 15.8777 44.4449 15.6229 44.464 15.5696C44.4832 15.5192 44.4976 15.4688 44.4976 15.4599C44.4976 15.451 44.5239 15.374 44.5526 15.2881C44.5838 15.2021 44.6197 15.0896 44.6341 15.0421C44.6484 14.9918 44.7035 14.8199 44.7562 14.657C44.8855 14.2659 45.4003 12.654 45.4602 12.4584C45.4841 12.3725 45.4985 12.2896 45.4913 12.2718C45.4817 12.254 45.4889 12.2451 45.5033 12.2481C45.52 12.254 45.5703 12.1236 45.623 11.9547C45.6709 11.7888 45.7307 11.6051 45.7523 11.5459C45.7738 11.4896 45.7858 11.4273 45.7762 11.4066C45.7666 11.3888 45.769 11.3829 45.7834 11.3918C45.8121 11.4155 45.8696 11.217 45.8481 11.1696C45.8385 11.1488 45.8409 11.1399 45.8505 11.1547C45.8624 11.1666 45.9175 11.0273 45.9774 10.8436C46.0348 10.6599 46.0995 10.4555 46.1234 10.3903C46.1474 10.3251 46.2072 10.1384 46.2575 9.97548C46.3581 9.64659 46.3653 9.61696 46.4323 9.42733C46.4754 9.31178 46.6023 8.90289 46.6813 8.64215C46.6957 8.59178 46.7268 8.49993 46.7484 8.43474C46.7723 8.36956 46.8178 8.22141 46.8513 8.10881C46.8849 7.99326 46.928 7.85993 46.9495 7.81252C46.9711 7.76215 46.9878 7.69696 46.9878 7.66437C46.9878 7.62881 46.9974 7.5903 47.0094 7.57548C47.0214 7.5577 47.0525 7.4777 47.0788 7.3977C47.2057 7.00363 47.3015 6.7103 47.3207 6.65696C47.4284 6.37252 47.5745 5.854 47.5529 5.83622C47.529 5.81548 51.8127 5.78585 51.851 5.80363C51.863 5.80956 51.7026 6.30733 51.5852 6.62733C51.5733 6.65993 51.5373 6.76659 51.5038 6.86437C51.4727 6.96215 51.3506 7.31474 51.238 7.64956C51.1231 7.98437 51.0273 8.26882 51.0249 8.28659C51.0225 8.30141 50.9866 8.40808 50.9435 8.52067C50.9004 8.6303 50.8669 8.73104 50.8669 8.74289C50.8669 8.76067 50.7208 9.18733 50.6274 9.44215C50.6035 9.50733 50.4742 9.88659 50.3377 10.2866C49.9977 11.291 49.9666 11.3829 49.8828 11.6259C49.842 11.7444 49.7774 11.937 49.7415 12.0555C49.7032 12.171 49.6601 12.2925 49.6481 12.3221C49.617 12.3873 49.4733 12.817 49.4781 12.8288C49.4805 12.8318 49.4565 12.8999 49.4278 12.977C49.3991 13.054 49.3679 13.1429 49.356 13.1755C49.3368 13.2347 49.3081 13.3236 49.2171 13.5873C49.1884 13.6644 49.174 13.7414 49.1812 13.7562C49.1884 13.771 49.1836 13.7829 49.1716 13.7829C49.1596 13.7829 49.1189 13.8718 49.083 13.9814C49.0471 14.094 49.0088 14.2066 48.9968 14.2333C48.925 14.4051 48.7286 15.0214 48.731 15.0688C48.731 15.0984 48.7262 15.1133 48.719 15.1044C48.6975 15.0777 48.4461 15.8273 48.4652 15.8659C48.4724 15.8807 48.47 15.8866 48.458 15.8777C48.4461 15.8688 48.4101 15.9429 48.379 16.0436C48.3479 16.1444 48.2976 16.2925 48.2689 16.3755C48.2377 16.4555 48.2066 16.5562 48.197 16.5977C48.1875 16.6392 48.1539 16.731 48.1228 16.8051C48.0941 16.8792 48.0246 17.0777 47.9696 17.2496C47.9145 17.4214 47.8427 17.6318 47.8115 17.7147C47.7804 17.8007 47.7612 17.8955 47.7684 17.9221C47.778 17.9577 47.7756 17.9636 47.7612 17.9399C47.7493 17.9162 47.7253 17.9518 47.6966 18.0436C47.6726 18.1207 47.6319 18.2392 47.6056 18.3103C47.5817 18.3784 47.5673 18.4525 47.5769 18.4703C47.5864 18.491 47.5841 18.494 47.5673 18.4821C47.5505 18.4703 47.5386 18.4733 47.5386 18.491C47.5386 18.5088 47.4883 18.6659 47.4284 18.8407C47.1794 19.5696 47.0525 19.9429 46.9854 20.1325C46.9471 20.2451 46.9232 20.3488 46.9304 20.3666C46.9423 20.3873 46.9351 20.3903 46.916 20.3755C46.892 20.3577 46.8873 20.3666 46.8968 20.414C46.9064 20.4496 46.904 20.4733 46.8944 20.4644C46.8825 20.4584 46.8178 20.6214 46.7484 20.8288C46.6789 21.0362 46.6023 21.2614 46.576 21.3325C46.5496 21.4007 46.5257 21.4896 46.5233 21.5281C46.5233 21.5666 46.5137 21.5933 46.5065 21.5873C46.497 21.5814 46.485 21.5933 46.4778 21.614C46.3317 22.0673 46.2096 22.4288 46.1378 22.6273C46.1186 22.6747 46.1115 22.7251 46.1162 22.737C46.1234 22.7488 46.1186 22.7607 46.1043 22.7607C46.0827 22.7607 45.9582 23.1281 45.9582 23.1992C45.9582 23.217 45.9486 23.2347 45.9367 23.2347C45.9247 23.2347 45.9079 23.2703 45.8983 23.3147C45.8912 23.3592 45.86 23.457 45.8337 23.531C45.805 23.6051 45.7834 23.6821 45.7834 23.6999C45.7834 23.7207 45.7738 23.7384 45.7642 23.7384C45.7547 23.7384 45.7355 23.7829 45.7211 23.8333C45.7068 23.8866 45.6589 24.0377 45.6134 24.1651C45.5679 24.2955 45.5368 24.414 45.544 24.4288C45.5511 24.4466 45.5464 24.4496 45.5344 24.4407C45.52 24.4288 45.5033 24.4466 45.4961 24.4792C45.4841 24.5384 45.4649 24.5384 43.9468 24.5325L42.4096 24.5236L42.3785 24.4199C42.333 24.2659 42.1749 23.7918 42.1558 23.7562C42.1486 23.7384 42.139 23.7088 42.1366 23.694C42.1318 23.6644 41.8541 22.8644 41.7679 22.6273C41.7559 22.5947 41.7128 22.4614 41.6721 22.331C41.6314 22.2007 41.5835 22.0525 41.5667 22.0051C41.5164 21.8688 41.3297 21.3236 41.2291 21.0273C41.1812 20.8792 41.1214 20.7073 41.0974 20.6421C41.0759 20.577 41.0471 20.494 41.0399 20.4555C41.0304 20.4199 41.0112 20.3903 40.9992 20.3903C40.9873 20.3903 40.9777 20.3725 40.9777 20.3488C40.9777 20.3044 40.7622 19.6347 40.664 19.3681C40.6329 19.2851 40.6065 19.2051 40.6041 19.1903C40.5994 19.1636 40.2857 18.254 40.2354 18.1236C40.2234 18.091 40.1803 17.9577 40.1396 17.8273C40.0271 17.4688 40.0127 17.4303 39.9864 17.4481C39.9744 17.457 39.972 17.451 39.9816 17.4333C39.9983 17.4007 39.8978 17.0866 39.6871 16.4999C39.6607 16.4318 39.6296 16.334 39.6176 16.2866C39.6056 16.2362 39.5841 16.2007 39.5697 16.2036C39.5554 16.2096 39.5482 16.1918 39.5554 16.171C39.5625 16.1473 39.541 16.0525 39.5051 15.9547C39.4141 15.7118 39.4117 15.6999 39.2872 15.3236C39.2273 15.137 39.1698 14.977 39.1603 14.9681C39.1531 14.9592 39.1435 14.9325 39.1387 14.9088C39.1339 14.8851 39.11 14.811 39.0836 14.7429C39.0597 14.6718 39.0382 14.6066 39.0382 14.5977C39.0382 14.5888 39.0118 14.5059 38.9783 14.417C38.9448 14.3281 38.9184 14.2481 38.9184 14.2421C38.9184 14.2362 38.8921 14.1562 38.8586 14.0673C38.825 13.9784 38.7987 13.8984 38.7987 13.8896C38.7987 13.8807 38.7724 13.8036 38.7388 13.7177C38.7077 13.6318 38.6479 13.454 38.6071 13.3236C38.4898 12.9503 38.4324 12.8051 38.4132 12.8229C38.4012 12.8318 38.3988 12.8199 38.406 12.7962C38.4132 12.7725 38.3892 12.6747 38.3557 12.5799C38.3198 12.4851 38.2168 12.177 38.1235 11.9014C38.0301 11.6229 37.9343 11.3444 37.9104 11.2792C37.8888 11.214 37.8242 11.0273 37.7691 10.8644C37.6709 10.5681 37.6494 10.5088 37.556 10.251C37.5272 10.174 37.5057 10.1059 37.5057 10.094C37.5057 10.0792 37.3309 9.56659 37.2543 9.35326C37.2016 9.20807 37.1369 9.01548 37.0148 8.65104C36.9478 8.44659 36.8903 8.3103 36.8759 8.32215C36.8616 8.334 36.8592 8.32511 36.8688 8.30437C36.8855 8.27178 36.7921 7.96956 36.5479 7.2703C36.5144 7.16956 36.4761 7.09548 36.4641 7.10733C36.4545 7.12215 36.4521 7.11622 36.4593 7.09844C36.4761 7.05993 36.4258 6.87918 36.3994 6.87918C36.3899 6.87918 36.3803 6.85252 36.3803 6.82289C36.3803 6.7903 36.3707 6.7577 36.3587 6.74882C36.3492 6.73993 36.3324 6.69548 36.3252 6.65104C36.318 6.60363 36.2797 6.48215 36.2414 6.37548C36.2031 6.26882 36.1696 6.174 36.1672 6.16215C36.1672 6.14733 36.1384 6.06437 36.1049 5.97548L36.0474 5.81252L38.1833 5.80363C39.359 5.80067 40.324 5.79474 40.3336 5.78881C40.3408 5.78585 40.3575 5.7977 40.3743 5.81845ZM26.4815 7.35919C26.7545 8.21252 27.3028 9.92215 27.7003 11.1607C28.0978 12.3992 28.4929 13.6259 28.5767 13.8866C29.2328 15.9459 29.5967 17.057 29.6135 17.051C29.6255 17.0481 29.659 16.9681 29.6901 16.8733C29.9798 15.9666 30.6814 13.777 30.8969 13.1014C31.0454 12.6362 31.4453 11.3977 31.7877 10.3459C32.1301 9.294 32.4246 8.37844 32.4461 8.30733C32.4725 8.21844 32.4892 8.19178 32.5036 8.21548C32.518 8.24511 32.53 8.23622 32.5467 8.18289C32.5587 8.14141 32.5707 8.12956 32.5707 8.15326C32.5707 8.20956 32.5132 8.30733 32.494 8.28067C32.4845 8.27178 32.4773 8.26882 32.4773 8.28067C32.4773 8.28956 32.494 8.31919 32.5156 8.34289C32.5539 8.3903 32.5395 8.46437 32.4988 8.43474C32.4869 8.42289 32.4773 8.43178 32.4773 8.44659C32.4773 8.46437 32.4869 8.47919 32.5012 8.47919C32.5156 8.47919 32.5252 10.5088 32.5252 14.331C32.5252 18.2421 32.518 20.1829 32.5012 20.1829C32.4892 20.1829 32.4773 20.1947 32.4773 20.2125C32.4773 20.2273 32.494 20.2333 32.5132 20.2244C32.5323 20.2125 32.5491 20.2214 32.5491 20.2392C32.5491 20.257 32.5371 20.2718 32.5204 20.2718C32.506 20.2718 32.5012 20.2807 32.5084 20.2925C32.518 20.3014 32.506 20.337 32.4845 20.3696C32.4605 20.4021 32.4557 20.4199 32.4701 20.4081C32.4916 20.3933 32.4964 20.4021 32.4869 20.4318C32.4797 20.4584 32.4605 20.4703 32.4461 20.4584C32.4318 20.4496 32.4294 20.4555 32.439 20.4762C32.4485 20.494 32.4294 20.5918 32.3959 20.6955C32.3312 20.897 31.5554 23.1873 31.28 23.9962L31.1052 24.5088H29.58H28.0523L27.9278 24.1296C27.8583 23.9221 27.7721 23.6673 27.7362 23.5607C27.7003 23.454 27.6141 23.2021 27.5446 22.9977C27.4752 22.7933 27.3291 22.3666 27.2214 22.0496C27.1112 21.7325 26.9532 21.2644 26.867 21.0125C26.7808 20.7607 26.503 19.9459 26.2516 19.2051C25.9978 18.4644 25.7248 17.6555 25.641 17.4125C25.5596 17.1666 25.2124 16.1533 24.8748 15.1607C24.5348 14.1651 24.19 13.1459 24.1038 12.894C24.0176 12.6421 23.8595 12.174 23.7494 11.857C23.6416 11.5399 23.4692 11.0333 23.3663 10.731C23.2657 10.4288 23.1364 10.0496 23.0789 9.88659C23.0239 9.72363 22.8491 9.21696 22.6958 8.76067C22.5402 8.30437 22.2959 7.58437 22.1499 7.16067C21.8673 6.33104 21.7021 5.83919 21.7021 5.82141C21.7021 5.81845 22.6647 5.81252 23.8428 5.81252H25.9834L26.4815 7.35919ZM50.7567 9.35622C50.7639 9.37993 50.7615 9.39178 50.7472 9.38289C50.7328 9.374 50.7232 9.35326 50.7232 9.33548C50.7232 9.294 50.74 9.30289 50.7567 9.35622ZM41.7535 9.85993C41.7607 9.88363 41.7583 9.89548 41.7439 9.88659C41.7295 9.8777 41.72 9.85696 41.72 9.83919C41.72 9.7977 41.7367 9.80659 41.7535 9.85993ZM50.1916 10.9829C50.1845 10.9918 50.1701 10.977 50.1629 10.9473C50.1485 10.9059 50.1509 10.9029 50.1749 10.9296C50.1916 10.9503 50.1988 10.974 50.1916 10.9829ZM39.9313 17.3533C39.9241 17.3799 39.9121 17.3947 39.9073 17.3859C39.9002 17.377 39.9026 17.3592 39.9121 17.3414C39.9337 17.294 39.9481 17.3029 39.9313 17.3533ZM46.0564 22.977C46.0324 23.0036 46.03 23.0007 46.0444 22.9592C46.0516 22.9296 46.066 22.9147 46.0731 22.9236C46.0803 22.9325 46.0731 22.9562 46.0564 22.977Z" fill="#1E1E1E"/>
</svg>
