<svg width="42" height="36" viewBox="0 0 42 36" fill="none" xmlns="http://www.w3.org/2000/svg">
<path fill-rule="evenodd" clip-rule="evenodd" d="M21.9316 15.1239C20.5947 13.8562 18.3648 13.5152 16.6895 14.676C15.0141 15.8368 14.7782 17.7776 16.0939 19.1505C16.8743 19.9649 18.7832 21.4238 20.207 22.4759C20.7979 22.9125 21.0933 23.1308 21.45 23.2192C21.7551 23.2948 22.1084 23.2948 22.4135 23.2192C22.7701 23.1308 23.0655 22.9125 23.6564 22.4759C25.0803 21.4238 26.9891 19.9649 27.7696 19.1505C29.0852 17.7776 28.8782 15.8246 27.174 14.676C25.4698 13.5275 23.2688 13.8562 21.9316 15.1239Z" stroke="#1E1E1E" stroke-width="3" stroke-linecap="round" stroke-linejoin="round"/>
<path d="M36.6497 18.6207C36.6497 25.6481 30.0623 31.3449 21.9363 31.3449C18.6071 31.3449 7.22408 31.3449 7.22408 31.3449C7.22408 31.3449 9.77309 26.0518 8.75294 24.277C7.77359 22.5731 7.2229 20.6526 7.2229 18.6207C7.2229 11.5934 13.8103 5.89661 21.9363 5.89661C30.0623 5.89661 36.6497 11.5934 36.6497 18.6207Z" stroke="#1E1E1E" stroke-width="3" stroke-linecap="round" stroke-linejoin="round"/>
</svg>
